<?xml version="1.0" standalone="no"?>
<!DOCTYPE svg PUBLIC "-//W3C//DTD SVG 20010904//EN"
 "http://www.w3.org/TR/2001/REC-SVG-20010904/DTD/svg10.dtd">
<svg version="1.0" xmlns="http://www.w3.org/2000/svg"
 width="500.000000pt" height="500.000000pt" viewBox="0 0 500.000000 500.000000"
 preserveAspectRatio="xMidYMid meet">
<metadata>
Created by potrace 1.11, written by Peter Selinger 2001-2013
</metadata>
<g transform="translate(0.000000,500.000000) scale(0.100000,-0.100000)"
fill="#000000" stroke="none">
<path d="M507 3232 c-15 -16 -17 -87 -17 -733 0 -693 0 -716 19 -733 17 -16
49 -17 388 -14 352 4 371 5 438 27 121 40 204 89 285 171 87 87 141 174 175
281 132 418 -59 860 -425 977 -111 36 -184 42 -521 42 -301 0 -327 -1 -342
-18z m672 -398 c39 -23 84 -88 108 -158 14 -39 18 -81 18 -176 0 -144 -15
-201 -72 -275 -44 -58 -98 -84 -175 -85 l-58 0 0 361 0 362 73 -5 c47 -3 85
-12 106 -24z"/>
<path d="M2037 3232 c-16 -17 -17 -82 -17 -734 0 -680 1 -716 18 -731 16 -15
48 -17 234 -17 195 0 216 2 231 18 15 16 17 50 17 270 l0 252 218 0 c199 0
220 2 235 18 14 16 17 44 17 179 0 142 -2 162 -18 176 -16 15 -48 17 -235 17
l-217 0 0 85 0 85 288 0 c267 0 290 1 305 18 14 16 17 44 17 184 0 147 -2 167
-18 181 -17 15 -69 17 -539 17 -491 0 -521 -1 -536 -18z"/>
<path d="M3267 3232 c-16 -17 -17 -82 -17 -734 0 -680 1 -716 18 -731 17 -15
60 -17 418 -17 479 0 560 10 668 82 55 36 115 120 143 201 27 79 25 256 -3
318 -28 59 -85 123 -141 156 l-43 25 39 28 c49 36 94 101 116 168 25 76 17
208 -18 284 -32 71 -107 152 -169 184 -98 50 -142 54 -584 54 -385 0 -412 -1
-427 -18z m711 -375 c42 -39 28 -127 -23 -147 -15 -6 -73 -10 -131 -10 l-104
0 0 91 0 91 119 -3 c97 -3 123 -7 139 -22z m-17 -537 c41 -12 69 -46 69 -85 0
-73 -47 -95 -200 -95 l-110 0 0 95 0 95 103 0 c56 0 118 -5 138 -10z"/>
</g>
</svg>
